<svg width="1439" height="30" fill="none" xmlns="http://www.w3.org/2000/svg"><g clip-path="url(#clip0)"><path fill="#fff" d="M0-940h1440v2014H0z"/><path d="M0 10h1440v1014H0V10zm660 0h180V0H660v10z" fill="#A21ED8"/><path d="M480 20h120V10H480v10z" fill="#F0F0F0"/><path d="M480 20h120V10H480v10z" fill="#F0F0F0"/><path d="M480 20h120V10H480v10z" fill="#F0F0F0"/><path d="M480 20h120V10H480v10zm120 10h60V20h-60v10z" fill="#F0F0F0"/><path d="M600 30h60V20h-60v10z" fill="#F0F0F0"/><path d="M600 30h60V20h-60v10z" fill="#F0F0F0"/><path d="M600 30h60V20h-60v10z" fill="#F0F0F0"/><path d="M1140 10h60V0h-60v10z" fill="#A21ED8"/></g><defs><clipPath id="clip0"><path fill="#fff" transform="translate(0 -940)" d="M0 0h1440v2014H0z"/></clipPath></defs></svg>